<svg width="106" height="94" viewBox="0 0 106 94" fill="none" xmlns="http://www.w3.org/2000/svg">
<path d="M93.5975 12.3838C91.2518 10.0429 88.4667 8.18596 85.4013 6.91902C82.3359 5.65209 79.0503 5 75.7322 5C72.4141 5 69.1285 5.65209 66.0631 6.91902C62.9977 8.18596 60.2127 10.0429 57.8669 12.3838L52.9988 17.2396L48.1306 12.3838C43.3924 7.65759 36.9661 5.00245 30.2653 5.00245C23.5645 5.00245 17.1382 7.65759 12.4 12.3838C7.66187 17.11 5 23.52 5 30.2039C5 36.8877 7.66187 43.2978 12.4 48.0239L17.2682 52.8798L52.9988 88.52L88.7293 52.8798L93.5975 48.0239C95.9443 45.6842 97.806 42.9061 99.0761 39.8485C100.346 36.7909 101 33.5136 101 30.2039C101 26.8941 100.346 23.6169 99.0761 20.5592C97.806 17.5016 95.9443 14.7235 93.5975 12.3838Z" fill="#DB1E1E" stroke="#DB1E1E" stroke-width="10" stroke-linecap="round" stroke-linejoin="round"/>
</svg>
