<svg width="40" height="40" viewBox="0 0 40 40" fill="none" xmlns="http://www.w3.org/2000/svg">
<path d="M16.3334 29.1667C15.6854 29.1667 15.7956 28.922 15.5721 28.305L13.6667 22.0345L28.3334 13.3333" fill="#96B124"/>
<path d="M16.3333 29.1667C16.8333 29.1667 17.0541 28.938 17.3333 28.6667L19.9999 26.0737L16.6736 24.0679" fill="#6D8800"/>
<path d="M16.6735 24.0683L24.7335 30.0232C25.6534 30.5307 26.317 30.2678 26.5462 29.1693L29.827 13.7088C30.1629 12.3622 29.3137 11.7512 28.4337 12.1507L9.16871 19.5792C7.85371 20.1067 7.86154 20.8403 8.92904 21.1672L13.8729 22.7103L25.3184 15.4895C25.8587 15.1618 26.3547 15.3378 25.9477 15.6992" fill="#AEC93C"/>
</svg>
